<svg width="20" height="20" viewBox="0 0 20 20" fill="none" xmlns="http://www.w3.org/2000/svg">
<path d="M10 0.000366211C4.579 0.000366211 0 4.57937 0 10.0004C0 15.4214 4.579 20.0004 10 20.0004C15.421 20.0004 20 15.4214 20 10.0004C20 4.57937 15.421 0.000366211 10 0.000366211ZM10 5.00037C11.727 5.00037 13 6.27237 13 8.00037C13 9.72837 11.727 11.0004 10 11.0004C8.274 11.0004 7 9.72837 7 8.00037C7 6.27237 8.274 5.00037 10 5.00037ZM4.894 14.7724C5.791 13.4524 7.287 12.5724 9 12.5724H11C12.714 12.5724 14.209 13.4524 15.106 14.7724C13.828 16.1404 12.015 17.0004 10 17.0004C7.985 17.0004 6.172 16.1404 4.894 14.7724Z" fill="#1C1F1B"/>
</svg>

