<svg width="34" height="34" viewBox="0 0 34 34" fill="none" xmlns="http://www.w3.org/2000/svg">
<path fill-rule="evenodd" clip-rule="evenodd" d="M10.5757 1.51025C12.2375 1.43375 12.7673 1.41675 17.0003 1.41675C21.2333 1.41675 21.7632 1.43516 23.4235 1.51025C25.0838 1.58533 26.2172 1.85025 27.2088 2.23416C28.2472 2.62658 29.1893 3.24 29.9685 4.03333C30.7618 4.81108 31.3738 5.75175 31.7648 6.79158C32.1502 7.78325 32.4137 8.91658 32.4902 10.5741C32.5667 12.2387 32.5837 12.7685 32.5837 17.0001C32.5837 21.2331 32.5652 21.7629 32.4902 23.4247C32.4151 25.0822 32.1502 26.2155 31.7648 27.2072C31.3738 28.2471 30.7608 29.1894 29.9685 29.9682C29.1893 30.7616 28.2472 31.3736 27.2088 31.7646C26.2172 32.1499 25.0838 32.4134 23.4263 32.4899C21.7632 32.5664 21.2333 32.5834 17.0003 32.5834C12.7673 32.5834 12.2375 32.565 10.5757 32.4899C8.91824 32.4148 7.78491 32.1499 6.79324 31.7646C5.7533 31.3735 4.81107 30.7605 4.03216 29.9682C3.23936 29.19 2.62585 28.2483 2.23441 27.2086C1.85049 26.2169 1.58699 25.0836 1.51049 23.4261C1.43399 21.7615 1.41699 21.2317 1.41699 17.0001C1.41699 12.7671 1.43541 12.2372 1.51049 10.5769C1.58558 8.91658 1.85049 7.78325 2.23441 6.79158C2.62643 5.75186 3.24041 4.81011 4.03358 4.03191C4.81138 3.23929 5.75266 2.62579 6.79183 2.23416C7.78349 1.85025 8.91683 1.58675 10.5743 1.51025H10.5757ZM23.2974 4.31525C21.6541 4.24016 21.1611 4.22458 17.0003 4.22458C12.8396 4.22458 12.3466 4.24016 10.7032 4.31525C9.18316 4.38466 8.35866 4.63825 7.80899 4.85216C7.08224 5.1355 6.56233 5.47125 6.01691 6.01666C5.49989 6.51965 5.102 7.13198 4.85241 7.80875C4.63849 8.35841 4.38491 9.18291 4.31549 10.703C4.24041 12.3463 4.22483 12.8393 4.22483 17.0001C4.22483 21.1608 4.24041 21.6538 4.31549 23.2972C4.38491 24.8172 4.63849 25.6417 4.85241 26.1914C5.10174 26.8672 5.49983 27.4806 6.01691 27.9835C6.51983 28.5006 7.13324 28.8987 7.80899 29.148C8.35866 29.3619 9.18316 29.6155 10.7032 29.6849C12.3466 29.76 12.8382 29.7756 17.0003 29.7756C21.1625 29.7756 21.6541 29.76 23.2974 29.6849C24.8175 29.6155 25.642 29.3619 26.1917 29.148C26.9184 28.8647 27.4383 28.5289 27.9837 27.9835C28.5008 27.4806 28.8989 26.8672 29.1482 26.1914C29.3622 25.6417 29.6157 24.8172 29.6852 23.2972C29.7602 21.6538 29.7758 21.1608 29.7758 17.0001C29.7758 12.8393 29.7602 12.3463 29.6852 10.703C29.6157 9.18291 29.3622 8.35841 29.1482 7.80875C28.8649 7.082 28.5292 6.56208 27.9837 6.01666C27.4807 5.49968 26.8684 5.1018 26.1917 4.85216C25.642 4.63825 24.8175 4.38466 23.2974 4.31525V4.31525ZM15.0099 21.804C16.1215 22.2667 17.3593 22.3292 18.5118 21.9807C19.6643 21.6322 20.6601 20.8944 21.3291 19.8933C21.9981 18.8921 22.2987 17.6898 22.1797 16.4916C22.0607 15.2935 21.5294 14.1738 20.6766 13.3238C20.1329 12.7805 19.4755 12.3645 18.7518 12.1057C18.028 11.8469 17.2559 11.7518 16.491 11.8273C15.7261 11.9027 14.9875 12.1468 14.3282 12.542C13.669 12.9372 13.1055 13.4736 12.6785 14.1127C12.2515 14.7518 11.9714 15.4776 11.8586 16.2379C11.7457 16.9981 11.8028 17.774 12.0258 18.5096C12.2487 19.2451 12.632 19.9221 13.148 20.4918C13.664 21.0614 14.2999 21.5096 15.0099 21.804ZM11.3365 11.3362C12.0803 10.5925 12.9633 10.0025 13.9351 9.59993C14.9069 9.19739 15.9485 8.99021 17.0003 8.99021C18.0522 8.99021 19.0938 9.19739 20.0656 9.59993C21.0374 10.0025 21.9204 10.5925 22.6642 11.3362C23.4079 12.08 23.9979 12.963 24.4005 13.9348C24.803 14.9066 25.0102 15.9482 25.0102 17.0001C25.0102 18.052 24.803 19.0935 24.4005 20.0653C23.9979 21.0371 23.4079 21.9201 22.6642 22.6639C21.162 24.1661 19.1247 25.01 17.0003 25.01C14.876 25.01 12.8386 24.1661 11.3365 22.6639C9.83435 21.1618 8.99046 19.1244 8.99046 17.0001C8.99046 14.8757 9.83435 12.8384 11.3365 11.3362V11.3362ZM26.7867 10.1831C26.971 10.0092 27.1185 9.80013 27.2206 9.56821C27.3226 9.33629 27.3771 9.08625 27.3808 8.8329C27.3845 8.57954 27.3373 8.32802 27.2421 8.09323C27.1468 7.85843 27.0054 7.64514 26.8263 7.46597C26.6471 7.2868 26.4338 7.1454 26.199 7.05015C25.9642 6.95489 25.7127 6.90771 25.4593 6.91141C25.206 6.9151 24.9559 6.96959 24.724 7.07165C24.4921 7.17371 24.283 7.32127 24.1092 7.50558C23.771 7.86404 23.5859 8.34017 23.5931 8.8329C23.6003 9.32563 23.7992 9.79616 24.1476 10.1446C24.4961 10.4931 24.9666 10.692 25.4593 10.6992C25.9521 10.7064 26.4282 10.5212 26.7867 10.1831V10.1831Z" fill="#FFFBF2"/>
</svg>
