<?xml version="1.0" encoding="utf-8"?>
<!-- Generator: Adobe Illustrator 24.1.3, SVG Export Plug-In . SVG Version: 6.00 Build 0)  -->
<svg version="1.1" id="Calque_1" xmlns="http://www.w3.org/2000/svg" xmlns:xlink="http://www.w3.org/1999/xlink" x="0px" y="0px"
	 viewBox="0 0 659.5 132.2" style="enable-background:new 0 0 659.5 132.2;" xml:space="preserve">
<style type="text/css">
	.st0{fill:#1C1F1B;}
</style>
<path class="st0" d="M80.7,129.6v-1.5l3.1-1.2c2.1-0.8,3.4-1.8,3.9-2.9c0.6-1.5,0.9-3.1,0.8-4.7V42.2c0.1-1.6-0.2-3.3-0.9-4.7
	c-0.9-1.4-2.2-2.4-3.8-2.8l-3.1-1.2V32h37.7v1.5l-2.7,1.2c-1.6,0.5-3,1.5-3.8,2.9c-0.7,1.5-1.1,3.1-1,4.8v84.3h22.8
	c3.6,0,6.3-0.9,8.1-2.7c2.1-2.3,3.7-4.9,4.9-7.7l5.8-12.4h1.5l-1.3,25.7L80.7,129.6z"/>
<path class="st0" d="M160.1,21.5c3.4-0.1,6.6,1.3,8.8,3.9c2.2,2.6,3.3,6,3.3,10.3c0,5.5-1.7,10.9-4.9,15.5c-3,4.6-7.2,8.3-12.1,10.7
	l-0.9-1.8c2.2-1.7,4-3.7,5.5-6.1c1.7-2.8,2.9-5.9,3.4-9.2l-3.1-0.7c-3.1-0.6-5.9-2.1-8.1-4.4c-1.9-2.1-2.9-4.8-2.9-7.6
	c-0.1-2.9,1.1-5.7,3.2-7.7C154.5,22.4,157.3,21.4,160.1,21.5z"/>
<path class="st0" d="M179.5,129.6v-1.5l3.4-1.3c1.4-0.5,2.7-1.5,3.5-2.7c0.7-1.4,1.1-3,1-4.7V42.2c0.1-1.6-0.2-3.2-0.8-4.7
	c-0.8-1.4-2.1-2.3-3.6-2.7l-3.4-1.3V32h70.9l0.9,22.8h-1.5l-6.4-13.9c-0.7-1.5-1.7-3-2.8-4.3c-1.2-1.2-2.8-1.7-4.4-1.6h-26.7v42.7
	h15.8c1.7,0.1,3.3-0.4,4.5-1.6c1.2-1.2,2.1-2.7,2.7-4.2l3-5.9h1.5v26.6h-1.5l-3-6.2c-0.7-1.5-1.7-2.9-2.8-4.2
	c-1.2-1.1-2.8-1.7-4.4-1.6h-15.8v46h29.9c1.7,0.1,3.3-0.4,4.6-1.6c1.2-1.2,2.1-2.7,2.7-4.4l6.1-13.9h1.5l-0.9,22.8L179.5,129.6z
	 M205.8,22.3c2.6-2.6,5.1-5.2,7.7-7.9c2.6-2.7,5-5.3,7.4-7.8c1.7-2,3.8-3.8,6-5.3c1.4-0.8,2.9-1.3,4.5-1.3c1.7-0.1,3.3,0.5,4.5,1.7
	c1.1,1.1,1.7,2.6,1.7,4.2c0,3.1-3.1,6.1-9.2,8.9l-10.6,4.6c-3.4,1.5-6.9,3.1-10.6,4.7L205.8,22.3z"/>
<path class="st0" d="M310.9,132.2c-9,0.1-17.9-1.9-26-5.8c-7.7-3.9-14.1-9.9-18.4-17.4c-4.5-7.7-6.8-17.1-6.8-28.3
	c-0.2-7.6,1.3-15.2,4.1-22.3c2.6-6.1,6.4-11.6,11.3-16.1c4.8-4.3,10.4-7.7,16.6-9.8c6.4-2.2,13.1-3.3,19.9-3.3
	c5.2,0,10.5,0.6,15.5,1.9c4.6,1.2,9.1,3,13.3,5.3l0.6,18.2h-1.5l-7.4-11.8c-0.9-1.8-2-3.5-3.3-5.1c-1.2-1.5-2.7-2.7-4.4-3.5
	c-1.4-0.7-2.9-1.2-4.4-1.6c-1.8-0.4-3.6-0.5-5.4-0.5c-5.5-0.1-11,1.5-15.6,4.6c-4.7,3.1-8.4,8.1-11.3,15.2s-4.2,16.7-4.2,28.9
	c0,12.1,1.3,21.7,4,28.8c2.7,7,6.3,12.1,10.9,15.1c4.6,3,10,4.6,15.5,4.5c2.5,0.1,5.1-0.2,7.5-0.7c1.9-0.5,3.8-1.1,5.6-2
	c1.8-0.7,3.2-1.9,4.3-3.5c1-1.6,1.9-3.3,2.7-5l6.5-14.5h1.5l-0.4,21.2c-4.4,2.3-9.1,4.1-13.9,5.3
	C322.2,131.6,316.6,132.3,310.9,132.2z"/>
<path class="st0" d="M394.6,132.2c-5.9,0-11.8-1.1-17.4-3.2c-5.6-2.2-10.7-5.5-14.9-9.7c-4.6-4.6-8.1-10-10.4-16.1
	c-2.6-6.4-3.8-13.9-3.8-22.5c-0.2-7.6,1.2-15.2,3.9-22.3c2.3-6,5.9-11.5,10.5-16c8.6-8.4,20.2-13.1,32.2-13.1c5.9,0,11.8,1,17.4,3.1
	c5.6,2.1,10.7,5.4,14.9,9.6c4.6,4.6,8.1,10.1,10.4,16.1c2.7,7.2,4,14.9,3.9,22.6c0.1,7.6-1.2,15.1-3.9,22.2
	c-2.3,6.1-5.9,11.5-10.4,16.1c-4.3,4.2-9.3,7.5-14.9,9.8C406.5,131.1,400.5,132.2,394.6,132.2z M394.6,129.1c5.4,0,9.8-1.5,13.2-4.4
	s5.8-7.9,7.3-14.9s2.3-16.7,2.3-29.1s-0.8-22.2-2.3-29.2s-4-12-7.3-14.9s-7.7-4.4-13.2-4.4s-9.7,1.5-13,4.4s-5.8,7.9-7.3,14.9
	S372,68.3,372,80.8s0.8,22,2.3,29.1s4,12,7.3,14.9S389.3,129.1,394.6,129.1L394.6,129.1z"/>
<path class="st0" d="M444.9,129.6v-1.5l3-1c1.6-0.3,3-1.3,3.9-2.7c0.7-1.5,1.1-3.1,1-4.7V42.2c0.1-1.6-0.3-3.3-1-4.7
	c-1-1.4-2.4-2.4-4-2.8l-2.8-1.2V32h36c14.7,0,25.3,2.7,31.9,8.1c6.6,5.4,9.9,12.4,9.8,21.2c0.1,5.4-1.4,10.8-4.1,15.4
	c-2.7,4.7-7.2,8.4-13.4,11.2s-14.6,4.1-25.3,4.1h-5v27.2c0,3.8,1.9,6.4,5.8,7.5l4.4,1.3v1.5L444.9,129.6z M474.9,89h5.6
	c4.8,0,8.8-0.8,11.8-2.4c3.1-1.6,5.3-4.3,6.8-8.3c1.5-3.9,2.2-9.4,2.2-16.4s-0.8-12.5-2.4-16.6c-1.6-3.9-4-6.7-7.2-8.2
	c-3.7-1.6-7.8-2.4-11.8-2.3h-5L474.9,89z"/>
<path class="st0" d="M527,129.6v-1.5l3-1.2c1.6-0.4,3-1.4,3.9-2.8c0.7-1.5,1.1-3.1,1-4.7V42.2c0.1-1.6-0.2-3.2-0.9-4.7
	c-0.6-1.2-1.9-2.1-4-2.8l-3-1.2V32h38v1.5l-3,1.2c-1.6,0.4-3,1.4-3.9,2.8c-0.7,1.5-1.1,3.1-1,4.7v77.2c-0.1,1.6,0.3,3.2,1,4.7
	c0.9,1.4,2.3,2.4,3.9,2.9l3,1.2v1.5L527,129.6z"/>
<path class="st0" d="M573.4,129.6v-1.5l4.9-1.5c1.6-0.4,3-1.4,3.8-2.9c0.8-1.6,1.2-3.3,1.2-5.1V47.5c-1.1-2.4-2-4.1-2.6-5.3
	c-0.6-1.1-1.3-2.1-2.2-3c-0.8-0.8-1.9-1.9-3.3-3.2l-2.5-2.5V32H599l49.1,67V43.2c0-1.8-0.3-3.6-1-5.3c-0.7-1.6-2.2-2.8-3.9-3.1
	l-4.9-1.3V32h21.2v1.5l-4,1.3c-1.6,0.4-2.8,1.6-3.3,3.1c-0.4,1.7-0.6,3.4-0.6,5.2v87h-8.3l-56.5-77.7v66.3c0,1.7,0.3,3.4,0.9,5
	c0.7,1.5,2.1,2.6,3.7,3l4.4,1.5v1.5L573.4,129.6z"/>
<polygon class="st0" points="56.8,1.1 17.7,47.7 35.1,47.7 0,100.2 56.8,100.2 "/>
</svg>
