<svg id="Calque_1" data-name="Calque 1" xmlns="http://www.w3.org/2000/svg" viewBox="0 0 388.91 279.14"><defs><style>.cls-1{fill:none;stroke:#000;stroke-miterlimit:10;stroke-width:2.37px;}</style></defs><path class="cls-1" d="M173.42,17S144.16,171.12,88.17,164.66c-27.62-3.19-26.87-53.45,10.72-53,32,.36,81.64,36.1-36.8,182.51" transform="translate(-60.3 -16.78)"/><path class="cls-1" d="M62.1,265.33l-.61,28.35a1,1,0,0,0,1.39,1l25.69-10.21" transform="translate(-60.3 -16.78)"/><path d="M265.79,78a23.82,23.82,0,0,0-29,4.42,24.15,24.15,0,0,0-6.15,13.26c-.3,2.51-.33,5.42,1.37,7.47s3.89,2.16,6.11,1.15c5.45-2.47,9.88-6.77,15.54-8.81s11.92-2.11,17.11.84a15.52,15.52,0,0,1,8.14,12.6c.2,5.53-2.2,11.16-5.6,15.44a27.9,27.9,0,0,1-13.85,9.41c-3.19.92-6.22,1.16-9-.95s-4.18-5.25-5.6-8.23c-.5-1.06-2.06-.14-1.57.91,2.24,4.73,5.31,10.33,11.17,10.82a17.9,17.9,0,0,0,7.55-1.49,29.12,29.12,0,0,0,6.6-3.54,29.92,29.92,0,0,0,9.43-11c2.41-4.92,3.71-10.91,1.74-16.19A18.29,18.29,0,0,0,270,93.93a22.8,22.8,0,0,0-16.48-.36c-5.73,2-10.27,6.07-15.62,8.77-1.34.68-2.69,1.2-4,.16a5.19,5.19,0,0,1-1.65-4.11,20.12,20.12,0,0,1,1.5-7.88A21.94,21.94,0,0,1,246,78.16a22.31,22.31,0,0,1,18.84,1.39.91.91,0,0,0,.92-1.57Z" transform="translate(-60.3 -16.78)"/><path d="M303.68,106.09a7.52,7.52,0,0,0-9.19-2c-3.75,1.72-5.79,5.88-6.65,9.71-1,4.26-.51,9,2.54,12.3s7.59,3.51,11.71,2.71a22.48,22.48,0,0,0,12.47-7.16c.78-.87-.5-2.16-1.28-1.28a20.9,20.9,0,0,1-8.59,5.85c-3.3,1.17-7.68,2-10.92.25-6.64-3.5-5.39-14.13-.95-18.9,2.3-2.48,6.94-3.69,9.28-.53.69.93,2.27,0,1.58-.92Z" transform="translate(-60.3 -16.78)"/><path d="M316.87,108.34l1.05-2a5.79,5.79,0,0,1,1.09-1.87l-.64.27c.32,0,.82,1.83.91,2.14.23.78.4,1.59.56,2.39.34,1.66.65,3.32,1,5,.62,3.41,1.17,6.82,1.67,10.25.14,1,1.9.78,1.78-.24-.58-5.19-1.19-10.62.62-15.65,1.68-4.7,5.55-7.51,9.94-9.51,1.06-.48.14-2-.92-1.57-4.57,2.08-8.53,5-10.48,9.82-2.2,5.37-1.61,11.29-1,16.91l1.79-.24c-.77-5.32-1.64-10.63-2.75-15.89-.3-1.42-.83-4.78-2.59-5.2a1.56,1.56,0,0,0-1.68.88c-.7,1.15-1.26,2.42-1.89,3.62-.54,1,1,2,1.57.92Z" transform="translate(-60.3 -16.78)"/><path d="M344.17,101.13c-5,3.25-4.49,10.17-1.4,14.6s8.53,6.7,13.64,4.75c5.45-2.07,7.87-8.62,7.81-14.06s-2.72-11.68-8.41-13.31a9,9,0,0,0-8.12,1.8c-2.7,2.14-4.22,5.29-5.65,8.35-.49,1.06,1.08,2,1.57.92,1.85-4,4.39-9.32,9.44-9.59s8.29,4.64,9.1,9.09c.85,4.63-.32,10.59-4.07,13.76-3.56,3-8.92,2.23-12.17-.83-3.59-3.39-5.83-10.68-.82-13.91,1-.63.07-2.21-.92-1.57Z" transform="translate(-60.3 -16.78)"/><path d="M374,97.87c7.76-4.5,9.57-15.3,9.46-23.49a43.76,43.76,0,0,0-2.72-14.67,27.33,27.33,0,0,0-3.05-6.12c-1-1.39-2.5-3.67-4.46-3.42s-3.1,2.61-3.69,4.27a18.55,18.55,0,0,0-.83,6.71,69.88,69.88,0,0,0,2.55,15.32c1.41,5.38,3,10.71,4.59,16,1.55,5.14,3,10.38,4.95,15.38,1.43,3.61,3.61,9,8.52,7.1,4.11-1.59,6.92-6.34,8.71-10.11,4.37-9.19,6.75-19.58,7.83-29.66A71.61,71.61,0,0,0,406,60.07a50.4,50.4,0,0,0-1.29-7.31,23.47,23.47,0,0,0-2.41-6.67c-.88-1.36-2.61-2.34-4-1.07A5.57,5.57,0,0,0,397,47.2a34,34,0,0,0-1.3,3.92,78.31,78.31,0,0,0-2.06,15.63,159,159,0,0,0-.1,16.77,64.92,64.92,0,0,0,2.23,15.12c1.25,4.2,3.34,8.41,7,11,3.26,2.26,7.72,3.06,11.32,1.14a14.53,14.53,0,0,0,4.58-4.25c.71-.93-.87-1.84-1.57-.92-2.51,3.29-5.87,5.25-10.07,4.06-4-1.12-6.64-4.39-8.27-8a42.07,42.07,0,0,1-3.05-12.95,125.66,125.66,0,0,1-.55-14c.05-4.76.29-9.52.77-14.26.44-4.4,1.05-9.23,3-13.25.21-.43.45-1,1-.87s.76.62,1,1a17.5,17.5,0,0,1,1.22,3.13,42.82,42.82,0,0,1,1.58,6.31A60.08,60.08,0,0,1,404.41,70a98.35,98.35,0,0,1-5.2,26.84A45.89,45.89,0,0,1,394,108.3a15.25,15.25,0,0,1-4.44,4.54c-2.26,1.35-4.09.47-5.29-1.68-2.17-3.87-3.37-8.35-4.65-12.56-1.39-4.56-2.78-9.11-4.11-13.69s-2.6-9-3.59-13.52a44.67,44.67,0,0,1-1.31-13.12c.16-2,.66-4.44,2.13-5.86s3.95,2.87,4.57,4a38.1,38.1,0,0,1,3.88,12.19A41.85,41.85,0,0,1,381,81.92a25.86,25.86,0,0,1-3.91,10.62,13,13,0,0,1-4.07,3.76.91.91,0,0,0,.91,1.57Z" transform="translate(-60.3 -16.78)"/><path d="M438.93,31.81c.42,12.56.27,25.17,1.69,37.68a87.27,87.27,0,0,0,1.62,9.9c.27,1.14,2,.65,1.76-.49a109.82,109.82,0,0,1-2.33-18.43c-.41-6.51-.57-13-.7-19.56-.07-3-.12-6.07-.22-9.1,0-1.17-1.86-1.18-1.82,0Z" transform="translate(-60.3 -16.78)"/><path d="M446.57,102.21c3.51,0,3.52-5.46,0-5.46s-3.52,5.46,0,5.46Z" transform="translate(-60.3 -16.78)"/></svg>