<?xml version="1.0" encoding="utf-8"?>
<!-- Generator: Adobe Illustrator 24.1.3, SVG Export Plug-In . SVG Version: 6.00 Build 0)  -->
<svg version="1.1" id="Calque_1" xmlns="http://www.w3.org/2000/svg" xmlns:xlink="http://www.w3.org/1999/xlink" x="0px" y="0px"
	 viewBox="0 0 40 40" style="enable-background:new 0 0 40 40;" xml:space="preserve">
<style type="text/css">
	.st0{fill:#1C1F1B;}
</style>
<g>
	<g>
		<path class="st0" d="M37.28,38.28c-0.28,0-0.54-0.12-0.72-0.32L23.13,24.55c-2.26,1.93-5.12,2.98-8.1,2.98
			c-6.89,0-12.5-5.61-12.5-12.5c0-6.89,5.61-12.5,12.5-12.5s12.5,5.61,12.5,12.5c0,2.98-1.06,5.84-2.98,8.1l13.43,13.44
			c0.19,0.18,0.3,0.44,0.3,0.71c0,0.27-0.11,0.53-0.31,0.71C37.82,38.17,37.56,38.28,37.28,38.28z M15.05,26.53
			C15.05,26.53,15.04,26.53,15.05,26.53C15.04,26.53,15.05,26.53,15.05,26.53z M15.06,26.53C15.06,26.53,15.05,26.53,15.06,26.53
			C15.05,26.53,15.06,26.53,15.06,26.53z M15.06,26.53C15.06,26.53,15.06,26.53,15.06,26.53C15.06,26.53,15.06,26.53,15.06,26.53z
			 M15.07,26.53C15.07,26.53,15.07,26.53,15.07,26.53C15.07,26.53,15.07,26.53,15.07,26.53z M15.03,4.53
			c-5.79,0-10.5,4.71-10.5,10.5c0,5.79,4.71,10.5,10.5,10.5s10.5-4.71,10.5-10.5C25.53,9.24,20.82,4.53,15.03,4.53z M26.53,15.08
			C26.53,15.08,26.53,15.08,26.53,15.08C26.53,15.08,26.53,15.08,26.53,15.08z M26.53,15.07C26.53,15.07,26.53,15.07,26.53,15.07
			C26.53,15.07,26.53,15.07,26.53,15.07z M26.53,15.06C26.53,15.06,26.53,15.06,26.53,15.06C26.53,15.06,26.53,15.06,26.53,15.06z
			 M26.53,15.05C26.53,15.05,26.53,15.05,26.53,15.05C26.53,15.05,26.53,15.05,26.53,15.05z M26.53,15.04
			C26.53,15.04,26.53,15.05,26.53,15.04C26.53,15.05,26.53,15.04,26.53,15.04z M26.53,15.03C26.53,15.03,26.53,15.04,26.53,15.03
			C26.53,15.04,26.53,15.03,26.53,15.03z"/>
	</g>
</g>
</svg>
