<svg width="35" height="29" viewBox="0 0 35 29" fill="none" xmlns="http://www.w3.org/2000/svg">
<path d="M31.4022 7.08436C31.4245 7.39525 31.4245 7.70622 31.4245 8.01712C31.4245 17.4999 24.2069 28.4264 11.0152 28.4264C6.95112 28.4264 3.17577 27.2493 0 25.2062C0.577432 25.2728 1.13258 25.295 1.73223 25.295C5.0856 25.295 8.17257 24.1624 10.6377 22.2303C7.48412 22.1637 4.84135 20.0983 3.9308 17.2557C4.375 17.3223 4.81913 17.3667 5.28555 17.3667C5.92956 17.3667 6.57364 17.2778 7.17322 17.1224C3.88644 16.4562 1.42126 13.5691 1.42126 10.0825V9.99366C2.37617 10.5267 3.48667 10.8598 4.66361 10.9041C2.7315 9.61604 1.46569 7.41747 1.46569 4.93015C1.46569 3.59769 1.82096 2.37624 2.44282 1.31024C5.97393 5.66303 11.2817 8.50562 17.2334 8.81658C17.1224 8.28358 17.0557 7.72844 17.0557 7.17322C17.0557 3.22014 20.2537 0 24.229 0C26.2943 0 28.1598 0.866113 29.4701 2.26522C31.0912 1.95433 32.6458 1.35468 34.0227 0.532998C33.4897 2.19864 32.3571 3.59775 30.8692 4.48602C32.3127 4.33063 33.7118 3.9308 34.9999 3.37565C34.0229 4.79691 32.8014 6.06272 31.4022 7.08436Z" fill="#FFFBF2"/>
</svg>
